<svg version="1.1" id="Layer_1" xmlns="http://www.w3.org/2000/svg" xmlns:xlink="http://www.w3.org/1999/xlink" x="0px" y="0px" width="1200px" height="1200px" viewBox="0 0 1200 1200" enable-background="new 0 0 1200 1200" xml:space="preserve">
<g>
	<path fill="#FFFFFF" d="M1139.328,610.672c0,297.851-241.472,539.328-539.313,539.328c-297.87,0-539.343-241.476-539.343-539.328
		c0-297.86,241.472-539.337,539.343-539.337C897.855,71.336,1139.328,312.812,1139.328,610.672z"></path>
	<path fill="#2e2e2e" d="M1139.328,589.338c0,297.855-241.472,539.323-539.313,539.323c-297.87,0-539.343-241.467-539.343-539.323
		C60.672,291.472,302.145,50,600.015,50C897.855,50,1139.328,291.472,1139.328,589.338z"></path>
	<path fill="#FFFFFF" d="M1050.129,387.324l-71.594-1.165l-1.175-9.89l-23.264-2.908c-1.175-5.248-5.248-10.476-5.248-10.476
		c0-55.869-16.87-62.861-16.87-62.861l-19.789,1.156c-17.458,5.238-19.788,85.556-19.788,85.556l-51.777-0.578
		c0-4.064-5.835-4.064-5.835-4.064c-0.567-2.918-9.301-2.33-9.301-2.33c-3.486-3.496-5.806-3.505-5.806-3.505
		c-1.175-2.909-8.744,2.33-8.744,2.33c-3.486-2.321-8.724,7.569-8.724,7.569l-375.348-10.486
		c-3.486-12.798-16.303-9.302-16.303-9.302c-1.753-1.743-5.239,2.321-5.239,2.321c-0.578-1.753-7.549,1.753-7.549,1.753
		c-2.928-1.753-6.991,3.485-6.991,3.485l-37.266-0.578c1.165-83.226-24.429-88.464-24.429-88.464l-20.953,1.165
		c-18.036,2.908-25.018,70.996-25.018,70.996l-16.87,1.166c-2.32,0-5.806,9.311-5.806,9.311l-66.365,0.588
		c-6.404,1.743-0.578,20.953-0.578,20.953l65.767,1.155c-1.174,4.074,4.074,8.734,4.074,8.734h19.788
		c-5.757,51.816,20.885,75.061,20.885,75.061l25.037-0.588c18.633-8.146,25.007-82.638,25.007-82.638l37.834,1.743
		c-2.909,2.33,8.156,17.458,8.156,17.458c2.898,1.753,15.714,27.934,15.714,27.934c18.036,48.898,50.631,65.768,50.631,65.768
		c4.064,1.753,16.284,14.55,16.284,14.55c3.73,16.459,32.056,36.727,37.03,40.173c3.016,4.181,10.712,16.861,10.712,16.861
		c-4.67,12.807,30.245,108.839,30.245,108.839c2.33,2.909-2.909,12.21-2.909,12.21c-4.073,1.753-18.045,10.476-18.045,10.476
		c-37.246-0.578-61.685,31.43-61.685,31.43c-13.982,10.476,1.753,48.888,1.753,48.888c3.495,3.495,27.925,68.676,27.925,68.676
		c-3.486-1.175-25.027,22.696-25.027,22.696c-9.87-0.578-17.449,13.394-17.449,13.394c-9.311,20.356,53.539,8.146,53.539,8.146
		c7.569-2.34,29.677-2.33,29.677-2.33c5.239-2.331-5.238-33.173-5.238-33.173c-2.918-16.89-6.404-11.064-6.404-11.064
		c-6.394-3.486-9.311-36.659-9.311-36.659c6.981-15.138-3.486-36.091-3.486-36.091c22.686,16.293,78.566-6.971,78.566-6.971
		c5.825,5.806,19.788,2.32,19.788,2.32c64.025,25.604,77.41,4.064,77.41,4.064c-6.981,13.394,1.155,49.486,1.155,49.486
		c0,6.403-8.136,29.677-8.136,29.677c-5.248,0.578-6.404,15.715-6.404,15.715c-5.835,2.311-5.238,21.531-5.238,21.531
		c-1.753,8.724,23.274,8.724,23.274,8.724c8.734,8.156,45.392,6.403,45.392,6.403c13.385-8.146-31.42-52.971-31.42-52.971
		c-1.165-4.64,27.357-71.573,27.357-71.573c8.146-23.284-4.083-49.466-4.083-49.466c-11.054-25.614-48.31-27.348-48.31-27.348
		c-5.816-6.394-16.871-6.394-16.871-6.394c-0.597-5.815-11.651-9.889-11.651-9.889c-1.165-2.32,1.753-23.274,1.753-23.274
		l-2.32-1.743c-0.588-4.073,8.136-44.814,8.136-44.814c11.055-19.21,9.311-38.422,9.311-38.422c0-5.228,6.971-16.283,6.971-16.283
		c17.478-6.981,37.257-41.897,37.257-41.897c2.918-4.073,36.678-29.687,36.678-29.687c5.806-4.074,61.097-75.667,61.097-75.667
		c9.899-4.641,13.395-20.366,13.395-20.366l53.538-1.165c-1.155,74.492,17.478,90.207,17.478,90.207l21.52,0.588
		c12.798-6.404,16.871-59.364,16.871-59.364c2.33-1.165,2.33-12.229,2.33-12.229l26.192-3.486c3.495-1.155,3.495-8.146,3.495-8.146
		l72.162,1.156C1057.689,400.709,1050.129,387.324,1050.129,387.324z M776.013,443.164c-18.055,9.899-49.466,43.072-49.466,43.072
		c-10.486,2.33-45.999,33.173-45.999,33.173c-15.695-4.66-40.722,18.623-40.722,18.623c-3.495,1.165-8.724-1.165-8.724-1.165
		l0.568-2.32l4.083-1.165c5.816-13.385,0-15.138,0-15.138s6.981-51.786-34.915-50.631c-41.916,1.175-34.348,45.392-34.348,45.392
		c-7.568-2.32,0.587,17.468,0.587,17.468c-6.394-8.734-40.144-15.137-40.144-15.137c-7,0.578-34.934-30.843-34.934-30.843
		c-6.404-14.55-44.228-45.393-48.31-50.641c-4.064-5.229-20.944-32.585-20.944-32.585c1.744,0,8.156-11.652,8.156-11.652
		l366.634,13.394c0.597,2.909,4.083,9.302,4.083,9.302C799.287,416.982,776.013,443.164,776.013,443.164z"></path>
</g>
</svg>